<svg xmlns="http://www.w3.org/2000/svg" xmlns:xlink="http://www.w3.org/1999/xlink" width="1000" zoomAndPan="magnify" viewBox="0 0 750 299.999988" height="400" preserveAspectRatio="xMidYMid meet" version="1.0"><path fill="#01a7cb" d="M 253.898438 92.5625 C 253.816406 92.5625 253.738281 92.515625 253.691406 92.445312 C 253.644531 92.371094 253.644531 92.28125 253.691406 92.207031 C 257.148438 86.136719 261.203125 78.761719 265.175781 73.332031 C 290.015625 39.40625 328.507812 17.609375 370.640625 15.472656 C 387.222656 14.636719 403.71875 16.714844 420.128906 21.707031 C 441.394531 28.179688 460.882812 40.738281 476.730469 56.238281 C 487.304688 66.578125 495.636719 78.503906 501.722656 92.019531 C 501.765625 92.125 501.757812 92.253906 501.695312 92.363281 C 501.632812 92.460938 501.515625 92.523438 501.394531 92.523438 L 470.421875 92.523438 C 469.941406 92.523438 469.480469 92.289062 469.199219 91.902344 C 459.324219 78.292969 447.039062 67.113281 432.34375 58.367188 C 400.113281 39.164062 359.664062 38.902344 326.78125 57.117188 C 310.527344 66.121094 298.058594 77.792969 286.257812 92.179688 C 286.070312 92.425781 285.769531 92.5625 285.460938 92.5625 Z M 253.898438 92.5625 " fill-opacity="1" fill-rule="nonzero"/><path fill="#3656b8" d="M 432.625 216.46875 C 432.75 216.414062 432.894531 216.449219 432.988281 216.558594 C 433.066406 216.667969 433.066406 216.820312 432.976562 216.929688 C 420.789062 231.570312 400.773438 241.042969 381.933594 241.839844 C 374.613281 242.148438 367.023438 241.101562 359.15625 238.699219 C 337.746094 232.167969 321.523438 218.714844 310.492188 198.34375 C 308.894531 195.386719 307.425781 191.859375 306.09375 187.765625 C 305.609375 186.273438 305.679688 184.855469 306.300781 183.503906 C 313.089844 168.808594 314.0625 153.511719 309.226562 137.617188 C 307.976562 133.535156 305.914062 129.726562 303.75 125.28125 C 303.351562 124.457031 303.261719 123.515625 303.496094 122.640625 C 304.125 120.335938 305.132812 117.679688 306.519531 114.667969 C 317.675781 90.523438 339.394531 72.320312 365.707031 67.050781 C 392.285156 61.730469 418.636719 72.15625 435.746094 92.667969 C 435.882812 92.824219 435.890625 93.050781 435.773438 93.210938 C 435.648438 93.375 435.429688 93.429688 435.25 93.339844 C 413.296875 84 387.960938 84.988281 367.597656 97.410156 C 337.902344 115.535156 324.34375 151.757812 340.976562 183.628906 C 352.28125 205.285156 372.402344 220.085938 397.027344 222.839844 C 409.820312 224.269531 421.152344 221.582031 432.625 216.46875 Z M 432.625 216.46875 " fill-opacity="1" fill-rule="nonzero"/><path fill="#000000" d="M 722.40625 173.496094 C 722.523438 173.324219 722.75 173.277344 722.921875 173.386719 L 737.933594 182.714844 C 738.023438 182.769531 738.089844 182.859375 738.105469 182.960938 C 738.125 183.066406 738.097656 183.167969 738.035156 183.25 C 729.417969 194.773438 718.621094 201.089844 705.640625 202.207031 C 672.582031 205.058594 650.75 177.667969 656.1875 145.867188 C 659.34375 127.425781 674.304688 112.902344 692.71875 110.007812 C 710.261719 107.246094 726.507812 113.5 737.828125 127.109375 C 737.933594 127.246094 737.988281 127.425781 737.953125 127.597656 C 737.925781 127.769531 737.828125 127.925781 737.671875 128.015625 C 732.742188 130.953125 727.964844 134.367188 723.328125 138.257812 C 723.167969 138.394531 722.957031 138.449219 722.757812 138.421875 C 722.550781 138.402344 722.363281 138.285156 722.242188 138.121094 C 713.828125 126.375 699.179688 123.410156 687.179688 130.957031 C 672.113281 140.429688 669.246094 164.671875 682.410156 177.195312 C 689.753906 184.179688 698.128906 186.488281 707.539062 184.117188 C 713.980469 182.488281 718.617188 179.175781 722.40625 173.496094 Z M 722.40625 173.496094 " fill-opacity="1" fill-rule="nonzero"/><path fill="#000000" d="M 377.589844 175.359375 C 379.234375 176.644531 381.597656 179.042969 383.480469 180.390625 C 391.894531 186.386719 401.015625 187.824219 410.84375 184.707031 C 414.917969 183.402344 418.109375 178.914062 417.351562 174.34375 C 416.5625 169.65625 411.648438 167.042969 407.304688 165.957031 C 399.949219 164.109375 391.589844 162.84375 384.457031 160.066406 C 374.179688 156.074219 367.445312 148.492188 367.054688 137.335938 C 366.855469 131.753906 368.339844 126.800781 371.5 122.476562 C 378.214844 113.292969 389.460938 109.492188 400.882812 109.671875 C 413.972656 109.871094 424.921875 114.730469 433.730469 124.25 C 433.863281 124.402344 433.929688 124.601562 433.902344 124.8125 C 433.875 125.011719 433.757812 125.191406 433.582031 125.300781 C 428.539062 128.429688 423.984375 131.796875 419.910156 135.398438 C 419.785156 135.515625 419.613281 135.570312 419.429688 135.550781 C 419.257812 135.542969 419.097656 135.453125 418.988281 135.316406 C 413.921875 129.066406 406.183594 126.351562 398.367188 126.59375 C 394.03125 126.730469 387.714844 128.773438 386.023438 133.234375 C 383.054688 141.074219 391.769531 144.195312 397.976562 145.660156 C 404.449219 147.199219 410.523438 148.726562 416.199219 150.246094 C 419.375 151.105469 422.601562 152.5625 425.882812 154.617188 C 432.0625 158.496094 435.378906 164.308594 435.835938 172.054688 C 437.304688 196.667969 412.480469 204.792969 392.320312 202.144531 C 380.375 200.570312 370.855469 195.003906 363.726562 185.402344 C 363.546875 185.160156 363.601562 184.816406 363.84375 184.632812 L 376.675781 175.339844 C 376.957031 175.140625 377.328125 175.152344 377.589844 175.359375 Z M 377.589844 175.359375 " fill-opacity="1" fill-rule="nonzero"/><path fill="#000000" d="M 30.085938 143.199219 C 30.085938 143.191406 30.074219 143.179688 30.066406 143.191406 C 30.046875 143.191406 30.046875 143.199219 30.046875 143.207031 L 30.046875 199.074219 C 30.046875 199.210938 29.992188 199.347656 29.894531 199.4375 C 29.804688 199.539062 29.667969 199.589844 29.53125 199.589844 L 12.539062 199.589844 C 12.3125 199.589844 12.085938 199.5 11.921875 199.339844 C 11.761719 199.175781 11.667969 198.949219 11.667969 198.722656 L 11.667969 111.863281 C 11.667969 111.609375 11.878906 111.402344 12.132812 111.402344 L 31.40625 111.402344 C 31.757812 111.402344 32.082031 111.589844 32.257812 111.90625 L 58.804688 160.574219 C 58.914062 160.773438 59.121094 160.898438 59.347656 160.898438 C 59.574219 160.890625 59.78125 160.761719 59.882812 160.5625 C 69.085938 142.648438 76.179688 127.898438 85.582031 112.050781 C 85.824219 111.636719 86.277344 111.382812 86.757812 111.382812 L 107.234375 111.382812 C 107.507812 111.382812 107.722656 111.609375 107.722656 111.878906 L 107.722656 199.101562 C 107.722656 199.203125 107.6875 199.300781 107.613281 199.375 C 107.542969 199.445312 107.453125 199.484375 107.351562 199.484375 L 90.386719 199.484375 C 90.222656 199.484375 90.058594 199.417969 89.941406 199.292969 C 89.824219 199.175781 89.761719 199.023438 89.761719 198.847656 L 89.761719 142.519531 C 89.769531 142.347656 89.652344 142.195312 89.488281 142.15625 C 89.316406 142.113281 89.144531 142.195312 89.074219 142.347656 L 62.089844 192.976562 C 61.9375 193.277344 61.628906 193.457031 61.292969 193.457031 L 57.746094 193.457031 C 57.476562 193.457031 57.230469 193.328125 57.066406 193.113281 C 55.910156 191.519531 55.285156 190.628906 55.195312 190.441406 C 50.683594 181.316406 45.660156 172.015625 40.128906 162.546875 C 36.390625 156.128906 33.179688 149.171875 30.085938 143.199219 Z M 30.085938 143.199219 " fill-opacity="1" fill-rule="nonzero"/><path fill="#000000" d="M 197.300781 199.554688 L 135.683594 199.554688 C 135.386719 199.554688 135.152344 199.320312 135.152344 199.023438 L 135.152344 111.960938 C 135.152344 111.816406 135.207031 111.679688 135.304688 111.582031 C 135.40625 111.484375 135.539062 111.429688 135.683594 111.429688 L 195.742188 111.429688 C 195.886719 111.429688 196.023438 111.484375 196.121094 111.582031 C 196.222656 111.679688 196.277344 111.816406 196.277344 111.960938 L 196.277344 127.144531 C 196.277344 127.289062 196.222656 127.425781 196.121094 127.527344 C 196.023438 127.625 195.886719 127.679688 195.742188 127.679688 L 153.835938 127.679688 C 153.539062 127.679688 153.304688 127.914062 153.304688 128.214844 L 153.304688 147.296875 C 153.304688 147.597656 153.539062 147.832031 153.835938 147.832031 L 193.074219 147.832031 C 193.21875 147.832031 193.355469 147.886719 193.453125 147.984375 C 193.550781 148.085938 193.605469 148.222656 193.605469 148.367188 L 193.605469 163.0625 C 193.605469 163.359375 193.371094 163.59375 193.074219 163.59375 L 154.109375 163.59375 C 153.964844 163.59375 153.828125 163.648438 153.726562 163.75 C 153.628906 163.847656 153.574219 163.984375 153.574219 164.128906 L 153.574219 183.203125 C 153.574219 183.503906 153.808594 183.738281 154.109375 183.738281 L 197.300781 183.738281 C 197.445312 183.738281 197.578125 183.792969 197.679688 183.890625 C 197.777344 183.992188 197.832031 184.128906 197.832031 184.273438 L 197.832031 199.023438 C 197.832031 199.320312 197.597656 199.554688 197.300781 199.554688 Z M 197.300781 199.554688 " fill-opacity="1" fill-rule="nonzero"/><path fill="#000000" d="M 222.625 111.878906 C 222.625 111.761719 222.726562 111.664062 222.84375 111.664062 L 258.984375 111.535156 C 270.605469 111.5 281.769531 115.96875 290.015625 123.980469 C 298.257812 131.988281 302.910156 142.875 302.945312 154.238281 L 302.953125 156.789062 C 303.035156 180.453125 283.488281 199.691406 259.292969 199.78125 L 223.152344 199.910156 C 223.035156 199.910156 222.933594 199.808594 222.933594 199.691406 Z M 241.078125 128.558594 L 241.367188 183.265625 C 241.367188 183.367188 241.402344 183.464844 241.476562 183.539062 C 241.546875 183.609375 241.648438 183.648438 241.746094 183.648438 L 256.742188 183.566406 C 271.609375 183.492188 283.597656 171.683594 283.527344 157.199219 L 283.507812 154.191406 C 283.472656 147.234375 280.601562 140.574219 275.527344 135.679688 C 270.449219 130.785156 263.589844 128.058594 256.453125 128.097656 L 241.457031 128.175781 C 241.25 128.175781 241.078125 128.347656 241.078125 128.558594 Z M 241.078125 128.558594 " fill-opacity="1" fill-rule="nonzero"/><path fill="#000000" d="M 536.859375 111.410156 C 536.929688 111.410156 537.003906 111.445312 537.039062 111.519531 C 537.085938 111.582031 537.078125 111.664062 537.039062 111.726562 L 503.53125 165.640625 C 503.234375 166.128906 503.070312 166.699219 503.070312 167.277344 L 503.070312 198.722656 C 503.070312 198.957031 502.980469 199.175781 502.816406 199.347656 C 502.644531 199.511719 502.429688 199.601562 502.191406 199.601562 L 485.0625 199.601562 C 484.925781 199.601562 484.800781 199.546875 484.703125 199.457031 C 484.609375 199.355469 484.554688 199.230469 484.554688 199.09375 L 484.554688 166.527344 C 484.554688 166.15625 484.449219 165.792969 484.238281 165.476562 L 448.832031 112.097656 C 448.730469 111.945312 448.722656 111.746094 448.804688 111.589844 C 448.894531 111.429688 449.058594 111.328125 449.238281 111.328125 L 471.191406 111.328125 C 471.480469 111.328125 471.742188 111.5 471.859375 111.761719 C 472.644531 113.5625 473.152344 114.644531 473.382812 115.011719 C 479.816406 125.285156 486.421875 136.226562 493.1875 147.832031 C 493.296875 148.023438 493.503906 148.140625 493.730469 148.140625 C 493.949219 148.140625 494.15625 148.023438 494.265625 147.832031 L 515.195312 111.582031 C 515.257812 111.472656 515.367188 111.410156 515.496094 111.410156 Z M 536.859375 111.410156 " fill-opacity="1" fill-rule="nonzero"/><path fill="#000000" d="M 574.332031 142.746094 C 574.277344 142.683594 574.195312 142.65625 574.113281 142.683594 C 574.03125 142.710938 573.976562 142.78125 573.976562 142.863281 L 573.976562 198.867188 C 573.976562 199.21875 573.695312 199.5 573.34375 199.5 L 556.894531 199.5 C 556.53125 199.5 556.242188 199.210938 556.242188 198.847656 L 556.242188 111.789062 C 556.242188 111.671875 556.285156 111.5625 556.367188 111.480469 C 556.460938 111.402344 556.566406 111.355469 556.683594 111.355469 L 571.679688 111.355469 C 572.023438 111.355469 572.347656 111.507812 572.566406 111.773438 C 577.6875 118.105469 582.726562 123.796875 587.332031 129.753906 C 595.277344 140.011719 604.742188 152.398438 615.71875 166.90625 C 615.785156 166.996094 615.902344 167.035156 616 166.996094 C 616.109375 166.960938 616.183594 166.851562 616.183594 166.742188 L 616.183594 111.664062 C 616.183594 111.492188 616.328125 111.347656 616.507812 111.347656 L 633.636719 111.347656 C 633.746094 111.347656 633.855469 111.390625 633.9375 111.464844 C 634.007812 111.546875 634.054688 111.644531 634.054688 111.753906 L 634.054688 198.839844 C 634.054688 199.011719 633.988281 199.175781 633.863281 199.292969 C 633.746094 199.417969 633.582031 199.484375 633.410156 199.484375 L 618.796875 199.484375 C 618.472656 199.484375 618.164062 199.300781 618.007812 199.023438 L 616.726562 196.660156 L 616.726562 196.652344 Z M 574.332031 142.746094 " fill-opacity="1" fill-rule="nonzero"/><path fill="#7030a0" d="M 256.714844 217.464844 C 256.679688 217.390625 256.679688 217.308594 256.714844 217.238281 C 256.757812 217.171875 256.832031 217.128906 256.914062 217.128906 C 264.066406 217.226562 273.898438 217.269531 286.402344 217.265625 C 288.140625 217.265625 289.074219 217.292969 290.257812 218.648438 C 293.0625 221.886719 295.367188 224.441406 297.171875 226.304688 C 315.097656 244.890625 338.796875 258.5 364.59375 261.683594 C 394.292969 265.351562 423.023438 257.378906 446.109375 238.683594 C 452.460938 233.535156 457.453125 228.796875 461.09375 224.457031 C 461.605469 223.847656 463.527344 221.636719 466.855469 217.824219 C 467.199219 217.4375 467.679688 217.21875 468.195312 217.21875 L 498.828125 217.21875 C 498.933594 217.21875 499.035156 217.273438 499.089844 217.363281 C 499.152344 217.453125 499.152344 217.5625 499.105469 217.664062 C 496.832031 222.15625 493.828125 227 490.09375 232.195312 C 467.589844 263.484375 433.964844 284.714844 395.878906 289.195312 C 382.339844 290.78125 368.835938 290.472656 355.363281 288.269531 C 336.289062 285.152344 318.644531 278.113281 302.429688 267.160156 C 283.390625 254.296875 268.152344 237.734375 256.714844 217.464844 Z M 256.714844 217.464844 " fill-opacity="1" fill-rule="nonzero"/><path fill="#000000" d="M 573.550781 246.074219 C 573.308594 246.238281 572.980469 246.195312 572.792969 245.96875 C 560.738281 232.148438 541.589844 242.699219 545.355469 260.664062 C 547.328125 270.054688 557.183594 274.253906 565.914062 271.394531 C 568.785156 270.453125 570.640625 268.738281 571.472656 266.246094 C 571.570312 265.945312 571.796875 265.710938 572.085938 265.59375 C 572.375 265.476562 572.703125 265.496094 572.980469 265.640625 L 578.621094 268.644531 C 578.882812 268.789062 579.070312 269.03125 579.144531 269.324219 C 579.21875 269.621094 579.152344 269.929688 578.980469 270.171875 C 569.578125 283.683594 550.558594 283.050781 541.128906 270.074219 C 536.125 263.1875 535.300781 253.433594 538.824219 245.894531 C 544.460938 233.824219 557.355469 229.550781 569.589844 233.960938 C 573.484375 235.363281 576.703125 237.90625 579.234375 241.585938 C 579.324219 241.714844 579.351562 241.878906 579.324219 242.03125 C 579.296875 242.183594 579.207031 242.320312 579.070312 242.410156 Z M 573.550781 246.074219 " fill-opacity="1" fill-rule="nonzero"/><path fill="#000000" d="M 610.011719 232.386719 C 623.09375 232.621094 633.511719 243.523438 633.285156 256.753906 C 633.167969 263.105469 630.570312 269.152344 626.046875 273.566406 C 621.53125 277.980469 615.457031 280.398438 609.179688 280.289062 C 596.09375 280.054688 585.679688 269.152344 585.902344 255.921875 C 586.023438 249.570312 588.617188 243.523438 593.144531 239.109375 C 597.660156 234.691406 603.730469 232.277344 610.011719 232.386719 Z M 609.640625 239.921875 C 605.523438 239.90625 601.558594 241.632812 598.636719 244.71875 C 595.703125 247.804688 594.058594 251.992188 594.039062 256.375 C 594.019531 260.753906 595.648438 264.953125 598.554688 268.066406 C 601.460938 271.167969 605.40625 272.914062 609.53125 272.933594 C 613.648438 272.949219 617.613281 271.222656 620.535156 268.136719 C 623.464844 265.050781 625.113281 260.863281 625.132812 256.480469 C 625.148438 252.101562 623.519531 247.902344 620.617188 244.789062 C 617.710938 241.6875 613.765625 239.941406 609.640625 239.921875 Z M 609.640625 239.921875 " fill-opacity="1" fill-rule="nonzero"/><path fill="#000000" d="M 680.4375 280.207031 C 680.445312 280.226562 680.445312 280.246094 680.4375 280.261719 C 680.429688 280.28125 680.410156 280.289062 680.394531 280.289062 L 671.714844 280.035156 C 671.480469 280.027344 671.261719 279.902344 671.136719 279.710938 L 661.742188 265.550781 C 661.210938 264.742188 660.296875 264.253906 659.328125 264.253906 L 653.898438 264.253906 C 653.734375 264.253906 653.570312 264.320312 653.453125 264.4375 C 653.335938 264.554688 653.273438 264.714844 653.273438 264.878906 L 653.273438 279.257812 C 653.273438 279.65625 652.957031 279.972656 652.558594 279.972656 L 645.761719 279.972656 C 645.363281 279.972656 645.039062 279.648438 645.039062 279.25 L 645.039062 233.226562 C 645.039062 233.171875 645.058594 233.125 645.09375 233.089844 C 645.128906 233.054688 645.183594 233.035156 645.230469 233.035156 C 656.273438 233.054688 662.820312 233.085938 664.863281 233.125 C 672.167969 233.261719 679.296875 237.695312 680.222656 245.214844 C 681.34375 254.375 677.507812 259.351562 669.136719 262.597656 C 669.007812 262.644531 668.917969 262.753906 668.882812 262.878906 C 668.835938 263.007812 668.863281 263.140625 668.9375 263.25 Z M 653.121094 240.71875 L 653.011719 256.410156 C 653.011719 256.480469 653.039062 256.554688 653.09375 256.601562 C 653.136719 256.652344 653.210938 256.679688 653.28125 256.679688 L 663.914062 256.753906 C 666.113281 256.773438 668.222656 255.949219 669.789062 254.464844 C 671.351562 252.988281 672.230469 250.980469 672.25 248.871094 L 672.25 248.511719 C 672.277344 244.128906 668.59375 240.546875 664.023438 240.519531 L 653.390625 240.449219 C 653.238281 240.449219 653.121094 240.566406 653.121094 240.71875 Z M 653.121094 240.71875 " fill-opacity="1" fill-rule="nonzero"/><path fill="#000000" d="M 692.761719 233.136719 C 694.441406 233.167969 700.515625 233.183594 710.988281 233.191406 C 720.613281 233.207031 728.109375 238.375 728.316406 248.519531 C 728.507812 258.019531 722.207031 263.949219 712.96875 264.554688 C 709.71875 264.769531 705.867188 264.777344 701.421875 264.570312 C 701.242188 264.5625 701.058594 264.625 700.925781 264.753906 C 700.789062 264.878906 700.714844 265.058594 700.714844 265.242188 L 700.714844 279.730469 C 700.714844 279.875 700.664062 280.007812 700.554688 280.109375 C 700.453125 280.21875 700.320312 280.273438 700.171875 280.273438 L 692.960938 280.273438 C 692.679688 280.273438 692.445312 280.035156 692.445312 279.753906 L 692.445312 233.445312 C 692.445312 233.363281 692.480469 233.28125 692.535156 233.226562 C 692.601562 233.164062 692.679688 233.136719 692.761719 233.136719 Z M 700.835938 241.171875 L 700.925781 257.023438 C 700.933594 257.234375 701.105469 257.40625 701.3125 257.40625 L 712.054688 257.351562 C 716.480469 257.324219 720.054688 253.902344 720.027344 249.714844 L 720.027344 248.265625 C 720.019531 246.246094 719.160156 244.328125 717.648438 242.910156 C 716.136719 241.496094 714.089844 240.710938 711.964844 240.71875 L 701.222656 240.773438 C 701.113281 240.773438 701.015625 240.820312 700.941406 240.890625 C 700.871094 240.964844 700.835938 241.0625 700.835938 241.171875 Z M 700.835938 241.171875 " fill-opacity="1" fill-rule="nonzero"/></svg>